<svg width="25" height="24" viewBox="0 0 25 24" fill="none" xmlns="http://www.w3.org/2000/svg">
    <path d="M3.83337 3H5.83337L6.23337 5M7.83337 13H17.8334L21.8334 5H6.23337M7.83337 13L6.23337 5M7.83337 13L5.54048 15.2929C4.91052 15.9229 5.35668 17 6.24759 17H17.8334M17.8334 17C16.7288 17 15.8334 17.8954 15.8334 19C15.8334 20.1046 16.7288 21 17.8334 21C18.9379 21 19.8334 20.1046 19.8334 19C19.8334 17.8954 18.9379 17 17.8334 17ZM9.83337 19C9.83337 20.1046 8.93794 21 7.83337 21C6.7288 21 5.83337 20.1046 5.83337 19C5.83337 17.8954 6.7288 17 7.83337 17C8.93794 17 9.83337 17.8954 9.83337 19Z" stroke="#fff" stroke-width="2" stroke-linecap="round" stroke-linejoin="round"/>
</svg>
