<svg width="25" height="24" viewBox="0 0 25 24" fill="none" xmlns="http://www.w3.org/2000/svg">
    <path d="M5.6211 17.8037C7.65273 16.6554 9.99986 16 12.5001 16C15.0003 16 17.3474 16.6554 19.379 17.8037M15.5001 10C15.5001 11.6569 14.1569 13 12.5001 13C10.8432 13 9.50006 11.6569 9.50006 10C9.50006 8.34315 10.8432 7 12.5001 7C14.1569 7 15.5001 8.34315 15.5001 10ZM21.5001 12C21.5001 16.9706 17.4706 21 12.5001 21C7.5295 21 3.50006 16.9706 3.50006 12C3.50006 7.02944 7.5295 3 12.5001 3C17.4706 3 21.5001 7.02944 21.5001 12Z" stroke="#fffF" stroke-width="2" stroke-linecap="round" stroke-linejoin="round"/>
</svg>
